<svg xmlns="http://www.w3.org/2000/svg" viewBox="0 0 960 320" role="img" aria-label="node-red-contrib-alfasinapsi logo">
  <defs>
    <linearGradient id="g" x1="0" y1="0" x2="1" y2="1">
      <stop offset="0" stop-color="#00BAFF"/>
      <stop offset="1" stop-color="#FF4D4D"/>
    </linearGradient>
    <filter id="s" x="-20%" y="-20%" width="140%" height="140%">
      <feDropShadow dx="0" dy="8" stdDeviation="10" flood-color="#000" flood-opacity=".18"/>
    </filter>
  </defs>

  <!-- mark -->
  <g transform="translate(40 40)" filter="url(#s)">
    <rect x="0" y="0" width="240" height="240" rx="44" fill="#111827"/>

    <!-- WiFi arcs -->
    <g fill="none" stroke="#9CA3AF" stroke-width="14" stroke-linecap="round" opacity=".9">
      <path d="M70 92c50-44 120-44 170 0"/>
      <path d="M96 120c36-30 82-30 118 0"/>
      <path d="M124 148c22-18 50-18 72 0"/>
    </g>
    <circle cx="160" cy="178" r="10" fill="#9CA3AF"/>

    <!-- stylized 'A' -->
    <path d="M70 214L120 70h20l50 144h-22l-11-34H103l-11 34H70zm39-54h42l-21-64-21 64z" fill="#E5E7EB"/>

    <!-- bolt overlay -->
    <path d="M152 66l-34 66h34l-20 70 56-90h-36l20-46z" fill="url(#g)"/>
  </g>

  <!-- wordmark -->
  <g transform="translate(320 86)">
    <text x="0" y="0" font-family="ui-sans-serif, system-ui, -apple-system, Segoe UI, Roboto, Helvetica, Arial" font-size="54" font-weight="700" fill="#111827">
      node-red-contrib-alfasinapsi
    </text>
    <text x="0" y="56" font-family="ui-sans-serif, system-ui, -apple-system, Segoe UI, Roboto, Helvetica, Arial" font-size="26" fill="#374151">
      Telemetry + load controller for Sinapsi Alfa
    </text>
    <g transform="translate(0 92)">
      <rect x="0" y="0" width="420" height="12" rx="6" fill="url(#g)" opacity=".9"/>
    </g>
  </g>
</svg>
